<svg width="38" height="38" viewBox="0 0 38 38" fill="none" xmlns="http://www.w3.org/2000/svg">
<g id="prime:user">
<path id="Vector" d="M19.0001 19.3958C17.8258 19.3958 16.6778 19.0476 15.7014 18.3952C14.725 17.7428 13.9639 16.8155 13.5145 15.7305C13.0652 14.6456 12.9476 13.4518 13.1767 12.3C13.4058 11.1482 13.9713 10.0903 14.8016 9.2599C15.632 8.42952 16.69 7.86403 17.8417 7.63493C18.9935 7.40583 20.1873 7.52342 21.2723 7.97281C22.3572 8.42221 23.2845 9.18323 23.9369 10.1596C24.5894 11.1361 24.9376 12.284 24.9376 13.4583C24.9376 15.0331 24.312 16.5433 23.1985 17.6568C22.085 18.7703 20.5748 19.3958 19.0001 19.3958ZM19.0001 9.89585C18.2955 9.89585 17.6067 10.1048 17.0209 10.4962C16.435 10.8877 15.9784 11.4441 15.7088 12.095C15.4391 12.746 15.3686 13.4623 15.506 14.1534C15.6435 14.8444 15.9828 15.4792 16.481 15.9774C16.9792 16.4756 17.614 16.8149 18.3051 16.9524C18.9961 17.0899 19.7124 17.0193 20.3634 16.7497C21.0144 16.48 21.5707 16.0234 21.9622 15.4376C22.3536 14.8517 22.5626 14.1629 22.5626 13.4583C22.5626 12.5135 22.1873 11.6074 21.5192 10.9393C20.8511 10.2712 19.9449 9.89585 19.0001 9.89585ZM30.0834 30.4792C29.7698 30.4751 29.4701 30.3486 29.2483 30.1268C29.0265 29.905 28.9 29.6053 28.8959 29.2917C28.8959 26.2042 27.2176 24.1458 19.0001 24.1458C10.7826 24.1458 9.10425 26.2042 9.10425 29.2917C9.10425 29.6066 8.97914 29.9087 8.75644 30.1314C8.53374 30.3541 8.23169 30.4792 7.91675 30.4792C7.6018 30.4792 7.29976 30.3541 7.07706 30.1314C6.85436 29.9087 6.72925 29.6066 6.72925 29.2917C6.72925 21.7708 15.3268 21.7708 19.0001 21.7708C22.6734 21.7708 31.2709 21.7708 31.2709 29.2917C31.2668 29.6053 31.1404 29.905 30.9186 30.1268C30.6968 30.3486 30.3971 30.4751 30.0834 30.4792Z" fill="#3F72AF"/>
</g>
</svg>
